<?xml version="1.0" encoding="UTF-8" standalone="no"?>
<!-- Created with Inkscape (http://www.inkscape.org/) -->

<svg
   width="200"
   height="200"
   viewBox="0 0 52.916665 52.916666"
   version="1.1"
   id="svg1"
   sodipodi:docname="NormsCount_icon.svg"
   inkscape:export-filename="NormsCount_icon.png"
   inkscape:export-xdpi="768"
   inkscape:export-ydpi="768"
   inkscape:version="1.4.3 (0d15f75042, 2025-12-25)"
   xmlns:inkscape="http://www.inkscape.org/namespaces/inkscape"
   xmlns:sodipodi="http://sodipodi.sourceforge.net/DTD/sodipodi-0.dtd"
   xmlns="http://www.w3.org/2000/svg"
   xmlns:svg="http://www.w3.org/2000/svg">
  <sodipodi:namedview
     id="namedview1"
     pagecolor="#505050"
     bordercolor="#eeeeee"
     borderopacity="1"
     inkscape:showpageshadow="0"
     inkscape:pageopacity="0"
     inkscape:pagecheckerboard="0"
     inkscape:deskcolor="#505050"
     showgrid="false"
     inkscape:zoom="5.815"
     inkscape:cx="95.44282"
     inkscape:cy="97.076526"
     inkscape:window-width="2560"
     inkscape:window-height="1440"
     inkscape:window-x="0"
     inkscape:window-y="0"
     inkscape:window-maximized="1"
     inkscape:current-layer="svg1" />
  <defs
     id="defs1">
    <marker
       style="overflow:visible"
       id="ArrowWide"
       refX="0"
       refY="0"
       orient="auto-start-reverse"
       markerWidth="1"
       markerHeight="1"
       viewBox="0 0 1 1"
       preserveAspectRatio="xMidYMid">
      <path
         style="fill:none;stroke:context-stroke;stroke-width:1;stroke-linecap:butt"
         d="M 3,-3 0,0 3,3"
         transform="rotate(180,0.125,0)"
         id="path18" />
    </marker>
    <rect
       x="311.68808"
       y="855.57654"
       width="120.08487"
       height="107.74769"
       id="rect17" />
  </defs>
  <rect
     style="fill:#6272a4;fill-opacity:1;stroke:none;stroke-width:1.63222;stroke-linecap:square;stroke-linejoin:round;stroke-dasharray:none"
     id="rect7"
     width="53.011307"
     height="53.011307"
     x="-0.027754214"
     y="-0.023432398" />
  <path
     d="m 24.310239,7.3761274 v 5.1069176 a 18.014352,18.014352 0 0 1 2.148112,-0.153594 18.014352,18.014352 0 0 1 2.148108,0.133894 V 7.3761274 Z"
     style="fill:none;stroke:#f8f8f2;stroke-width:1.32291664;stroke-linecap:round;stroke-linejoin:round;stroke-dasharray:none;stroke-opacity:1"
     id="path35" />
  <rect
     style="fill:none;stroke:#f8f8f2;stroke-width:1.32291664;stroke-linecap:round;stroke-linejoin:round;stroke-dasharray:none;stroke-opacity:1"
     id="rect2"
     width="9.2872171"
     height="3.0957389"
     x="21.814713"
     y="4.1377835"
     rx="1.3625925"
     ry="1.3919139" />
  <g
     id="g9"
     style="fill:none;stroke:#f8f8f2;stroke-width:4.09492;stroke-dasharray:none;stroke-opacity:1"
     transform="matrix(0.2971522,-0.12676789,0.12676789,0.2971522,-18.66424,-21.774652)">
    <path
       d="m 54.879339,135.66432 -13.298886,-1.2e-4 -1.22e-4,17.06535 a 55.761158,55.761158 0 0 1 13.298983,-4.27756 z"
       style="fill:none;stroke:#f8f8f2;stroke-width:4.09492;stroke-linecap:round;stroke-linejoin:round;stroke-dasharray:none;stroke-opacity:1"
       id="path29" />
    <rect
       style="fill:none;stroke:#f8f8f2;stroke-width:4.09492;stroke-linecap:round;stroke-linejoin:round;stroke-dasharray:none;stroke-opacity:1"
       id="rect9"
       width="28.74741"
       height="9.5824699"
       x="33.856304"
       y="125.64018"
       rx="4.2177334"
       ry="4.3084941" />
  </g>
  <g
     id="g13"
     style="stroke:#f8f8f2;stroke-width:4.09492;stroke-dasharray:none;stroke-opacity:1"
     transform="matrix(-0.2971522,-0.12676789,-0.12676789,0.2971522,71.580907,-21.774704)">
    <path
       d="m 54.879384,135.66395 -6.1e-5,12.72586 a 55.761158,55.761158 0 0 0 -13.298633,4.28333 l 8e-5,-17.00864 z"
       style="fill:none;stroke:#f8f8f2;stroke-width:4.09492;stroke-linecap:round;stroke-linejoin:round;stroke-dasharray:none;stroke-opacity:1"
       id="path32" />
    <rect
       style="fill:none;stroke:#f8f8f2;stroke-width:4.09492;stroke-linecap:round;stroke-linejoin:round;stroke-dasharray:none;stroke-opacity:1"
       id="rect13"
       width="28.74741"
       height="9.5824699"
       x="33.856304"
       y="125.64018"
       rx="4.2177334"
       ry="4.3084941" />
  </g>
  <text
     xml:space="preserve"
     transform="matrix(0.50778806,0,0,0.61461468,-137.28746,-502.24315)"
     id="text17"
     style="font-size:18.8976px;font-family:'CaskaydiaCove Nerd Font Mono';-inkscape-font-specification:'CaskaydiaCove Nerd Font Mono';white-space:pre;shape-inside:url(#rect17);display:inline;fill:#f8f8f2;fill-opacity:1;stroke:#f8f8f2;stroke-width:1.0719;stroke-linecap:round;stroke-linejoin:round;stroke-dasharray:none;stroke-opacity:1"><tspan
       x="311.6875"
       y="873.02469"
       id="tspan2">49</tspan></text>
  <path
     style="fill:none;fill-opacity:1;stroke:#f8f8f2;stroke-width:0.835813;stroke-linecap:round;stroke-linejoin:round;stroke-dasharray:none;stroke-opacity:1;marker-start:url(#ArrowWide)"
     d="m 12.873588,34.286258 3.275864,-7.59585 1.009894,5.707221 2.395451,-6.313053"
     id="path17" />
  <path
     style="fill:none;fill-opacity:1;stroke:#f8f8f2;stroke-width:0.835813;stroke-linecap:round;stroke-linejoin:round;stroke-dasharray:none;stroke-opacity:1;marker-start:url(#ArrowWide)"
     d="m 40.133006,26.401231 -3.275884,7.59585 -1.0099,-5.707221 -2.395461,6.313054"
     id="path19" />
  <g
     inkscape:groupmode="layer"
     id="layer2"
     inkscape:label="Layer 1"
     style="display:inline">
    <path
       id="path34"
       style="display:inline;fill:none;stroke:#f8f8f2;stroke-width:2.64583327;stroke-linecap:round;stroke-linejoin:round;stroke-opacity:1;stroke-dasharray:none"
       d="M 44.517638,30.343743 A 18.014352,18.014352 0 0 1 26.503285,48.358096 18.014352,18.014352 0 0 1 8.4889342,30.343743 18.014352,18.014352 0 0 1 26.503285,12.329391 18.014352,18.014352 0 0 1 44.517638,30.343743 Z" />
  </g>
</svg>
